<svg width="18" height="18" viewBox="0 0 18 18" fill="none" xmlns="http://www.w3.org/2000/svg">
<path d="M9.3365 1.81644C9.3365 1.15099 9.06677 0.611572 8.73405 0.611572C8.40132 0.611572 8.13159 1.15099 8.13159 1.81644V15.9693C8.13159 16.6348 8.40132 17.1742 8.73405 17.1742C9.06677 17.1742 9.3365 16.6348 9.3365 15.9693V1.81644Z" fill="#96989B" stroke="#96989B" stroke-width="0.666709" stroke-miterlimit="22.9256"/>
<path d="M1.65745 8.29104C0.992048 8.29104 0.452637 8.56075 0.452637 8.89344C0.452637 9.22614 0.992048 9.49585 1.65745 9.49585L15.8106 9.49585C16.476 9.49585 17.0154 9.22614 17.0154 8.89344C17.0154 8.56075 16.476 8.29104 15.8106 8.29104L1.65745 8.29104Z" fill="#96989B" stroke="#96989B" stroke-width="0.278297" stroke-miterlimit="22.9256"/>
</svg>
