<svg width="25" height="23" viewBox="0 0 25 23" fill="none" xmlns="http://www.w3.org/2000/svg">
<path fill-rule="evenodd" clip-rule="evenodd" d="M17.3459 0.736084H7.79545C5.24729 0.736084 2.98674 2.02907 1.63707 3.9914C1.67184 4.00651 1.70623 4.02239 1.73949 4.04015L12.5452 9.77559L23.3508 4.04015C23.3969 4.01559 23.4438 3.99404 23.4926 3.97477C22.1414 2.02189 19.8869 0.736084 17.3459 0.736084ZM0.702376 5.86868C0.45784 6.60531 0.324829 7.39108 0.324829 8.20708V14.7442C0.324829 18.8533 3.68635 22.2151 7.79545 22.2151H17.3459C21.455 22.2151 24.8165 18.8533 24.8165 14.7442V8.20708C24.8165 7.38277 24.6808 6.58869 24.4314 5.84563L13.3347 11.7364C13.0955 11.863 12.8177 11.9197 12.5452 11.9122C12.2727 11.9197 11.9949 11.863 11.7556 11.7364L0.702376 5.86868Z" fill="#DBB065"/>
</svg>
